<svg width="17" height="13" viewBox="0 0 17 13" fill="none" xmlns="http://www.w3.org/2000/svg">
<path d="M15.8367 2.43673L6.23674 12.0367C6.15313 12.1206 6.05378 12.1872 5.94438 12.2326C5.83498 12.2781 5.71769 12.3014 5.59924 12.3014C5.48079 12.3014 5.3635 12.2781 5.25411 12.2326C5.14471 12.1872 5.04535 12.1206 4.96174 12.0367L0.761742 7.83673C0.678024 7.75301 0.611616 7.65363 0.566308 7.54424C0.521 7.43486 0.497681 7.31763 0.497681 7.19923C0.497681 7.08084 0.521 6.9636 0.566308 6.85422C0.611616 6.74484 0.678024 6.64545 0.761742 6.56173C0.845459 6.47801 0.944847 6.4116 1.05423 6.3663C1.16361 6.32099 1.28085 6.29767 1.39924 6.29767C1.51764 6.29767 1.63487 6.32099 1.74425 6.3663C1.85364 6.4116 1.95302 6.47801 2.03674 6.56173L5.59999 10.125L14.5632 1.16323C14.7323 0.994155 14.9616 0.89917 15.2007 0.89917C15.4398 0.89917 15.6692 0.994155 15.8382 1.16323C16.0073 1.33231 16.1023 1.56162 16.1023 1.80073C16.1023 2.03984 16.0073 2.26916 15.8382 2.43823L15.8367 2.43673Z" fill="white"/>
</svg>
